<svg viewBox="0 0 800 600" xmlns="http://www.w3.org/2000/svg" aria-hidden="true">
  <defs>
    <radialGradient id="g4" cx="50%" cy="50%" r="70%">
      <stop offset="0%" stop-color="#F97316" stop-opacity="0.18"/>
      <stop offset="100%" stop-color="#08D3BB" stop-opacity="0.08"/>
    </radialGradient>
    <radialGradient id="g4b" cx="40%" cy="35%" r="75%" gradientTransform="rotate(20 .5 .5)">
      <stop offset="0%" stop-color="#5B8DEF" stop-opacity="0.16"/>
      <stop offset="100%" stop-color="#08D3BB" stop-opacity="0.06"/>
    </radialGradient>
    <linearGradient id="g4stroke" x1="0" y1="0" x2="1" y2="1">
      <stop offset="0%" stop-color="#F97316" stop-opacity="0.25"/>
      <stop offset="100%" stop-color="#08D3BB" stop-opacity="0.15"/>
    </linearGradient>
  </defs>

  <!-- base blob -->
  <path fill="url(#g4)" d="M640 320q-20 78-88 126t-164 44q-96-10-162-69T139 257q-6-84 58-135t164-47q110 5 190 63t89 154Z"/>

  <!-- secondary layer for more form -->
  <path fill="url(#g4b)" opacity="0.7" d="M680 300q-30 90-110 140t-170 50q-90-5-160-60T110 270q-10-90 70-145t180-50q120 10 200 70t80 155Z"/>

  <!-- subtle contour stroke -->
  <path fill="none" stroke="url(#g4stroke)" stroke-width="8" stroke-linejoin="round" stroke-linecap="round" opacity="0.35" d="M640 320q-20 78-88 126t-164 44q-96-10-162-69T139 257q-6-84 58-135t164-47q110 5 190 63t89 154Z"/>
</svg>


